HIERARCHY
ROOT Hips
{
	OFFSET 0.000000 89.005402 0.000000
	CHANNELS 6 Xposition Yposition Zposition Xrotation Yrotation Zrotation
	JOINT Spine
	{
		OFFSET 0.116900 10.681000 0.373400
		CHANNELS 3 Xrotation Yrotation Zrotation
		JOINT Spine1
		{
			OFFSET 0.000000 13.840401 0.053500
			CHANNELS 3 Xrotation Yrotation Zrotation
			JOINT Spine2
			{
				OFFSET 0.000000 14.712700 -0.366200
				CHANNELS 3 Xrotation Yrotation Zrotation
				JOINT Neck
				{
					OFFSET 0.000000 35.415497 -3.314200
					CHANNELS 3 Xrotation Yrotation Zrotation
					JOINT Head
					{
						OFFSET 0.000000 16.899200 1.218300
						CHANNELS 3 Xrotation Yrotation Zrotation
						JOINT HeadTop_End
						{
							OFFSET 0.000000 22.206207 2.192500
							CHANNELS 3 Xrotation Yrotation Zrotation
							End Site
							{
								OFFSET 0.000000 22.314178 0.000000
							}
						}
					}
				}
				JOINT LeftShoulder
				{
					OFFSET 12.896400 26.716293 -4.548400
					CHANNELS 3 Xrotation Yrotation Zrotation
					JOINT LeftArm
					{
						OFFSET 19.027000 -4.857010 -1.718400
						CHANNELS 3 Xrotation Yrotation Zrotation
						JOINT LeftForeArm
						{
							OFFSET 24.179897 0.000000 0.000000
							CHANNELS 3 Xrotation Yrotation Zrotation
							JOINT LeftHand
							{
								OFFSET 27.156403 0.000000 0.000000
								CHANNELS 3 Xrotation Yrotation Zrotation
								JOINT LeftHandIndex1
								{
									OFFSET 16.441200 0.000000 0.000000
									CHANNELS 3 Xrotation Yrotation Zrotation
									JOINT LeftHandIndex2
									{
										OFFSET 4.821899 0.000000 0.000000
										CHANNELS 3 Xrotation Yrotation Zrotation
										JOINT LeftHandIndex3
										{
											OFFSET 6.386497 0.000000 0.000000
											CHANNELS 3 Xrotation Yrotation Zrotation
											JOINT LeftHandIndex4
											{
												OFFSET 5.188988 0.000000 0.000000
												CHANNELS 3 Xrotation Yrotation Zrotation
												End Site
												{
													OFFSET -0.178703 5.185913 0.000177
												}
											}
										}
									}
								}
								JOINT LeftHandThumb1
								{
									OFFSET 6.534897 -5.032593 5.900300
									CHANNELS 3 Xrotation Yrotation Zrotation
									JOINT LeftHandThumb2
									{
										OFFSET 3.818176 -2.204422 2.204423
										CHANNELS 3 Xrotation Yrotation Zrotation
										JOINT LeftHandThumb3
										{
											OFFSET 3.252098 -1.877594 1.877601
											CHANNELS 3 Xrotation Yrotation Zrotation
											JOINT LeftHandThumb4
											{
												OFFSET 5.251778 -3.032120 3.032117
												CHANNELS 3 Xrotation Yrotation Zrotation
												End Site
												{
													OFFSET 0.000023 6.780014 0.000000
												}
											}
										}
									}
								}
							}
						}
					}
				}
				JOINT RightShoulder
				{
					OFFSET -12.896300 26.716293 -4.548400
					CHANNELS 3 Xrotation Yrotation Zrotation
					JOINT RightArm
					{
						OFFSET -19.027000 -4.857010 -1.718400
						CHANNELS 3 Xrotation Yrotation Zrotation
						JOINT RightForeArm
						{
							OFFSET -24.179897 0.000000 0.000000
							CHANNELS 3 Xrotation Yrotation Zrotation
							JOINT RightHand
							{
								OFFSET -27.156403 0.000000 0.000000
								CHANNELS 3 Xrotation Yrotation Zrotation
								JOINT RightHandThumb1
								{
									OFFSET -6.591202 -4.852203 5.988100
									CHANNELS 3 Xrotation Yrotation Zrotation
									JOINT RightHandThumb2
									{
										OFFSET -3.818176 -2.204422 2.204423
										CHANNELS 3 Xrotation Yrotation Zrotation
										JOINT RightHandThumb3
										{
											OFFSET -3.252098 -1.877594 1.877601
											CHANNELS 3 Xrotation Yrotation Zrotation
											JOINT RightHandThumb4
											{
												OFFSET -5.251778 -3.032120 3.032117
												CHANNELS 3 Xrotation Yrotation Zrotation
												End Site
												{
													OFFSET -0.000023 6.780014 0.000000
												}
											}
										}
									}
								}
								JOINT RightHandIndex1
								{
									OFFSET -16.029404 0.000000 0.000000
									CHANNELS 3 Xrotation Yrotation Zrotation
									JOINT RightHandIndex2
									{
										OFFSET -5.213303 0.000000 0.000000
										CHANNELS 3 Xrotation Yrotation Zrotation
										JOINT RightHandIndex3
										{
											OFFSET -6.386528 0.000000 0.000000
											CHANNELS 3 Xrotation Yrotation Zrotation
											JOINT RightHandIndex4
											{
												OFFSET -5.189026 0.000000 0.000000
												CHANNELS 3 Xrotation Yrotation Zrotation
												End Site
												{
													OFFSET 0.236702 5.183624 0.001972
												}
											}
										}
									}
								}
							}
						}
					}
				}
			}
		}
	}
	JOINT LeftUpLeg
	{
		OFFSET 14.073000 -7.904099 -1.463000
		CHANNELS 3 Xrotation Yrotation Zrotation
		JOINT LeftLeg
		{
			OFFSET -0.109806 -34.073280 4.093200
			CHANNELS 3 Xrotation Yrotation Zrotation
			JOINT LeftFoot
			{
				OFFSET 0.109806 -29.899420 -6.319000
				CHANNELS 3 Xrotation Yrotation Zrotation
				JOINT LeftToeBase
				{
					OFFSET 1.551100 -14.988700 20.535801
					CHANNELS 3 Xrotation Yrotation Zrotation
					JOINT LeftToe_End
					{
						OFFSET 0.221200 0.570800 13.248301
						CHANNELS 3 Xrotation Yrotation Zrotation
						End Site
						{
							OFFSET 0.000000 13.262435 0.000000
						}
					}
				}
			}
		}
	}
	JOINT RightUpLeg
	{
		OFFSET -13.839300 -7.904099 -1.463000
		CHANNELS 3 Xrotation Yrotation Zrotation
		JOINT RightLeg
		{
			OFFSET 0.109694 -34.073219 4.093300
			CHANNELS 3 Xrotation Yrotation Zrotation
			JOINT RightFoot
			{
				OFFSET -0.109694 -29.899384 -6.319200
				CHANNELS 3 Xrotation Yrotation Zrotation
				JOINT RightToeBase
				{
					OFFSET -1.551100 -14.988700 20.535801
					CHANNELS 3 Xrotation Yrotation Zrotation
					JOINT RightToe_End
					{
						OFFSET -0.221200 0.570900 13.248299
						CHANNELS 3 Xrotation Yrotation Zrotation
						End Site
						{
							OFFSET 0.000000 13.262440 0.000000
						}
					}
				}
			}
		}
	}
}
MOTION
Frames: 4
Frame Time: 0.033333
-0.033896 71.840492 0.887801 -2.484813 -34.809093 -1.518335 4.658282 1.468087 1.476621 7.328481 2.947304 1.069340 7.263252 3.102017 1.104264 9.672856 2.068570 -4.979146 18.889125 7.726289 -14.815922 0.000001 0.000001 -0.000000 -0.831794 8.296294 -6.638026 -25.420929 -22.476870 -68.749863 0.000065 -110.668223 0.000073 13.191960 -3.860613 14.155074 5.468818 6.735367 -78.128041 8.288558 6.736419 -101.829255 5.506367 6.743113 -78.448035 -0.000000 0.000002 0.000001 9.056385 10.601978 -5.965573 9.417654 22.103542 3.251313 2.732828 51.440071 6.459204 -0.000002 -0.000000 0.000001 3.717560 17.827595 0.729111 -20.706980 26.883980 64.422133 0.000021 126.831791 -0.000033 2.870825 5.675211 -12.064244 -0.815724 -16.226002 6.504801 17.424093 -21.200412 1.267103 18.064088 -57.087650 -8.376551 0.000003 0.000000 -0.000000 5.628756 -6.822402 79.026771 7.017409 -6.947884 90.571949 3.897150 -6.245455 63.897048 -0.000000 -0.000001 -0.000000 -38.421248 -0.861345 23.337757 49.166611 -9.568478 10.244428 -15.718714 -10.681640 -29.168432 0.191303 -0.000000 -0.000000 -0.000000 -0.000000 -0.000000 2.953708 -14.951740 -22.569862 44.471744 -4.448887 -0.636286 -38.692345 -12.051872 27.002851 0.094630 0.000026 0.000006 0.000000 0.000001 0.000000 
-0.005549 71.254791 1.486056 -3.022501 -34.509708 -1.637721 4.921303 1.578568 1.408653 7.592274 3.103827 0.992038 7.524270 3.259452 1.035395 9.714755 2.004494 -4.944999 19.387500 7.278505 -14.557643 -0.000003 0.000000 -0.000001 -0.796282 8.153724 -6.435102 -25.685980 -23.038971 -69.257592 -0.000040 -109.814832 -0.000018 13.850714 -2.953195 14.131596 5.468818 6.735365 -78.128041 8.288563 6.736418 -101.829255 5.506369 6.743112 -78.448035 -0.000000 -0.000000 -0.000001 9.056383 10.601979 -5.965576 9.417659 22.103542 3.251314 2.732834 51.440071 6.459207 0.000003 -0.000001 0.000001 3.810820 18.359362 0.647312 -21.158558 26.383988 64.269430 -0.000006 126.510594 -0.000013 2.060696 5.910539 -12.194023 -0.815723 -16.226004 6.504802 17.424094 -21.200410 1.267101 18.064086 -57.087650 -8.376547 -0.000002 0.000000 -0.000002 5.628756 -6.822405 79.026771 7.017410 -6.947884 90.571949 3.897148 -6.245452 63.897041 -0.000002 -0.000000 -0.000000 -38.848460 -0.808855 22.960605 51.506648 -9.696209 10.178294 -16.455965 -10.411605 -28.058332 0.039406 -0.000061 0.060389 0.000000 -0.000002 0.000000 3.255642 -16.459883 -23.709508 44.883827 -2.849957 -0.844696 -39.061179 -12.172575 27.200381 0.259011 -0.000007 -0.000001 -0.000000 -0.000000 0.000000 
0.057966 70.504013 2.484473 -3.891823 -34.848025 -1.782841 5.405403 1.789391 1.415555 8.031257 3.409774 0.978025 7.957689 3.561521 1.042030 9.782614 1.969030 -4.958768 20.215582 6.964908 -14.764200 0.000000 -0.000000 0.000000 -0.935509 8.707431 -6.372663 -24.998856 -24.218910 -69.568919 -0.000074 -109.332382 -0.000076 15.158082 -2.198825 15.177087 5.468817 6.735372 -78.128041 8.288559 6.736418 -101.829255 5.506370 6.743112 -78.448042 0.000001 -0.000001 -0.000003 9.056383 10.601978 -5.965572 9.417654 22.103546 3.251313 2.732830 51.440071 6.459207 0.000004 -0.000001 0.000001 3.885861 18.723666 0.536219 -22.221353 26.461869 63.550484 -0.000002 126.022249 -0.000012 1.295782 6.394756 -12.098520 -0.815723 -16.226001 6.504802 17.424093 -21.200407 1.267102 18.064092 -57.087650 -8.376553 0.000001 -0.000001 -0.000001 5.628757 -6.822404 79.026771 7.017408 -6.947886 90.571949 3.897152 -6.245464 63.897041 0.000000 -0.000002 0.000001 -39.797829 -0.992498 22.740867 56.397504 -8.558891 9.135056 -17.261413 -10.721783 -25.012907 -2.645264 -0.000003 -0.000007 -0.000000 0.000001 0.000000 3.354619 -18.314968 -25.627099 45.450811 -0.209234 -1.424205 -40.023129 -12.235227 27.118776 -0.363814 0.000015 0.000001 -0.000000 -0.000001 0.000000 
0.277268 69.471565 4.322902 -4.928073 -36.100470 -2.006033 6.036570 2.145881 1.487742 8.572819 3.919814 0.884693 8.494384 4.055759 0.986227 9.896225 1.947827 -4.888625 21.323649 6.930160 -15.587656 0.000000 -0.000000 0.000000 -1.204342 9.795981 -6.607351 -22.016112 -25.811722 -69.047701 0.000031 -110.069291 0.000012 17.560865 -1.368353 16.427653 5.468814 6.735366 -78.128041 8.288560 6.736421 -101.829255 5.506371 6.743114 -78.448042 0.000002 0.000002 0.000003 9.056381 10.601978 -5.965572 9.417659 22.103546 3.251312 2.732829 51.440071 6.459207 0.000001 -0.000000 0.000001 3.917424 19.032442 0.733002 -23.564479 27.370752 62.542594 -0.000014 125.479085 0.000027 1.051870 6.899805 -11.844655 -0.815724 -16.226009 6.504800 17.424091 -21.200403 1.267101 18.064093 -57.087650 -8.376553 0.000001 -0.000002 -0.000001 5.628756 -6.822409 79.026771 7.017407 -6.947887 90.571949 3.897149 -6.245459 63.897041 -0.000001 0.000000 -0.000001 -42.294727 -2.209795 22.712657 65.276268 -7.008466 7.560839 -16.818303 -11.918479 -22.322462 -7.638267 -0.000033 -0.000001 -0.000000 -0.000000 -0.000000 3.332889 -19.979487 -28.772817 45.602403 3.864003 -2.322787 -40.941117 -12.727578 27.515050 -1.418193 -0.000012 -0.000003 -0.000000 -0.000002 -0.000000 
